<svg width="475" height="141" viewBox="0 0 475 141" fill="none" xmlns="http://www.w3.org/2000/svg">
<rect width="141" height="141" rx="70.5" fill="url(#paint0_linear_251_140)"/>
<path d="M182.4 99.05C177.547 99.05 173.207 97.9533 169.38 95.76C165.553 93.5667 162.543 90.5333 160.35 86.66C158.203 82.7867 157.13 78.4 157.13 73.5C157.13 68.6 158.203 64.2133 160.35 60.34C162.543 56.4667 165.553 53.4333 169.38 51.24C173.207 49.0467 177.547 47.95 182.4 47.95C186.553 47.95 190.333 48.8133 193.74 50.54C197.193 52.22 199.993 54.6 202.14 57.68C204.287 60.76 205.593 64.3067 206.06 68.32H199.69C199.177 65.4267 198.127 62.93 196.54 60.83C194.953 58.6833 192.947 57.0267 190.52 55.86C188.093 54.6933 185.363 54.11 182.33 54.11C178.69 54.11 175.447 54.9267 172.6 56.56C169.753 58.1933 167.537 60.48 165.95 63.42C164.41 66.36 163.64 69.72 163.64 73.5C163.64 77.2333 164.41 80.57 165.95 83.51C167.537 86.45 169.753 88.7367 172.6 90.37C175.447 92.0033 178.69 92.82 182.33 92.82C185.363 92.82 188.093 92.26 190.52 91.14C192.947 89.9733 194.953 88.34 196.54 86.24C198.127 84.0933 199.177 81.5733 199.69 78.68H206.06C205.593 82.6933 204.287 86.24 202.14 89.32C199.993 92.4 197.193 94.8033 193.74 96.53C190.333 98.21 186.553 99.05 182.4 99.05ZM239.348 99.05C234.542 99.05 230.202 97.9533 226.328 95.76C222.455 93.52 219.398 90.4633 217.158 86.59C214.965 82.67 213.868 78.3067 213.868 73.5C213.868 68.6933 214.965 64.3533 217.158 60.48C219.398 56.56 222.455 53.5033 226.328 51.31C230.202 49.07 234.542 47.95 239.348 47.95C244.155 47.95 248.495 49.07 252.368 51.31C256.242 53.5033 259.275 56.56 261.468 60.48C263.662 64.3533 264.758 68.6933 264.758 73.5C264.758 78.3067 263.662 82.67 261.468 86.59C259.275 90.4633 256.242 93.52 252.368 95.76C248.495 97.9533 244.155 99.05 239.348 99.05ZM239.348 92.82C242.942 92.82 246.185 92.0033 249.078 90.37C251.972 88.69 254.235 86.38 255.868 83.44C257.548 80.4533 258.388 77.14 258.388 73.5C258.388 69.86 257.548 66.57 255.868 63.63C254.235 60.6433 251.972 58.31 249.078 56.63C246.185 54.95 242.942 54.11 239.348 54.11C235.755 54.11 232.512 54.95 229.618 56.63C226.725 58.31 224.462 60.6433 222.828 63.63C221.195 66.57 220.378 69.86 220.378 73.5C220.378 77.14 221.195 80.4533 222.828 83.44C224.462 86.38 226.725 88.69 229.618 90.37C232.512 92.0033 235.755 92.82 239.348 92.82ZM293.648 99.05C289.448 99.05 285.738 98.3267 282.518 96.88C279.298 95.3867 276.731 93.2867 274.818 90.58C272.951 87.8733 271.854 84.7467 271.528 81.2H277.758C278.131 83.7667 278.971 85.9833 280.278 87.85C281.584 89.7167 283.334 91.1867 285.528 92.26C287.768 93.2867 290.358 93.8 293.298 93.8C297.498 93.8 300.764 92.9833 303.098 91.35C305.431 89.67 306.598 87.3133 306.598 84.28C306.598 82.0867 305.921 80.3133 304.568 78.96C303.261 77.56 301.488 76.4867 299.248 75.74C297.054 74.9933 294.208 74.2933 290.708 73.64H290.638C286.951 72.94 283.871 72.1467 281.398 71.26C278.971 70.3733 277.011 69.1133 275.518 67.48C274.024 65.8467 273.278 63.7233 273.278 61.11C273.278 58.45 274.048 56.14 275.588 54.18C277.174 52.1733 279.344 50.6333 282.098 49.56C284.898 48.4867 288.071 47.95 291.618 47.95C295.678 47.95 299.224 48.6733 302.258 50.12C305.338 51.52 307.764 53.5267 309.538 56.14C311.311 58.7533 312.338 61.8567 312.618 65.45H306.108C305.688 61.6233 304.218 58.6367 301.698 56.49C299.178 54.3433 295.888 53.27 291.828 53.27C289.261 53.27 286.998 53.6667 285.038 54.46C283.124 55.2533 281.631 56.3967 280.558 57.89C279.484 59.3367 278.948 61.04 278.948 63C278.948 65.1 279.601 66.8033 280.908 68.11C282.214 69.37 284.011 70.3733 286.298 71.12C288.584 71.82 291.758 72.59 295.818 73.43C296.004 73.4767 296.168 73.5233 296.308 73.57C296.448 73.57 296.588 73.5933 296.728 73.64C296.821 73.6867 296.914 73.71 297.008 73.71C297.101 73.71 297.194 73.7333 297.288 73.78C300.554 74.4333 303.238 75.18 305.338 76.02C307.484 76.8133 309.234 78.0267 310.588 79.66C311.988 81.2467 312.688 83.3467 312.688 85.96C312.688 88.62 311.894 90.9533 310.308 92.96C308.768 94.92 306.551 96.4367 303.658 97.51C300.811 98.5367 297.474 99.05 293.648 99.05ZM324.367 98V49H331.227L349.987 96.32L368.747 49H375.537V98H369.237V51.94L350.827 98H349.077L330.667 51.94V98H324.367ZM392.18 98V49H422.07V54.6H398.41V72.8H415.42V74.2H398.41V92.4H424.8V98H392.18ZM447.498 98V55.09H428.528V49H472.698V55.09H453.798V98H447.498Z" fill="#EDA5DE"/>
<path d="M160.35 86.66L159.475 87.1448L159.48 87.1527L160.35 86.66ZM160.35 60.34L159.48 59.8472L159.475 59.8552L160.35 60.34ZM193.74 50.54L193.288 51.432L193.295 51.4357L193.303 51.4392L193.74 50.54ZM206.06 68.32V69.32H207.183L207.053 68.2045L206.06 68.32ZM199.69 68.32L198.705 68.4947L198.852 69.32H199.69V68.32ZM196.54 60.83L195.736 61.4244L195.742 61.4328L196.54 60.83ZM190.52 55.86L190.953 54.9587L190.953 54.9587L190.52 55.86ZM172.6 56.56L173.098 57.4274L173.098 57.4274L172.6 56.56ZM165.95 63.42L165.07 62.945L165.064 62.956L165.95 63.42ZM165.95 83.51L165.064 83.974L165.07 83.9849L165.95 83.51ZM172.6 90.37L172.102 91.2374L172.102 91.2374L172.6 90.37ZM190.52 91.14L190.939 92.048L190.946 92.0447L190.953 92.0413L190.52 91.14ZM196.54 86.24L197.338 86.8429L197.344 86.8344L196.54 86.24ZM199.69 78.68V77.68H198.852L198.705 78.5053L199.69 78.68ZM206.06 78.68L207.053 78.7955L207.183 77.68H206.06V78.68ZM202.14 89.32L202.96 89.8918L202.96 89.8918L202.14 89.32ZM193.74 96.53L194.182 97.4269L194.187 97.4244L193.74 96.53ZM182.4 98.05C177.703 98.05 173.538 96.9905 169.877 94.8924L168.883 96.6276C172.876 98.9162 177.39 100.05 182.4 100.05V98.05ZM169.877 94.8924C166.208 92.7892 163.326 89.886 161.22 86.1673L159.48 87.1527C161.761 91.1807 164.899 94.3442 168.883 96.6276L169.877 94.8924ZM161.225 86.1753C159.169 82.4656 158.13 78.2489 158.13 73.5H156.13C156.13 78.5511 157.238 83.1077 159.475 87.1447L161.225 86.1753ZM158.13 73.5C158.13 68.7511 159.169 64.5344 161.225 60.8247L159.475 59.8552C157.238 63.8923 156.13 68.4489 156.13 73.5H158.13ZM161.22 60.8327C163.326 57.114 166.208 54.2108 169.877 52.1076L168.883 50.3724C164.899 52.6558 161.761 55.8193 159.48 59.8472L161.22 60.8327ZM169.877 52.1076C173.538 50.0095 177.703 48.95 182.4 48.95V46.95C177.39 46.95 172.876 48.0838 168.883 50.3724L169.877 52.1076ZM182.4 48.95C186.41 48.95 190.033 49.7824 193.288 51.432L194.192 49.648C190.633 47.8443 186.696 46.95 182.4 46.95V48.95ZM193.303 51.4392C196.606 53.0463 199.273 55.3151 201.32 58.2518L202.96 57.1082C200.714 53.8848 197.781 51.3937 194.177 49.6408L193.303 51.4392ZM201.32 58.2518C203.365 61.1861 204.618 64.5734 205.067 68.4355L207.053 68.2045C206.569 64.04 205.209 60.3339 202.96 57.1082L201.32 58.2518ZM206.06 67.32H199.69V69.32H206.06V67.32ZM200.675 68.1453C200.137 65.1149 199.03 62.4672 197.338 60.2272L195.742 61.4328C197.223 63.3928 198.216 65.7385 198.705 68.4947L200.675 68.1453ZM197.344 60.2356C195.66 57.9568 193.525 56.1953 190.953 54.9587L190.087 56.7612C192.368 57.858 194.247 59.4099 195.736 61.4244L197.344 60.2356ZM190.953 54.9587C188.375 53.7193 185.494 53.11 182.33 53.11V55.11C185.232 55.11 187.811 55.6674 190.087 56.7612L190.953 54.9587ZM182.33 53.11C178.535 53.11 175.117 53.9632 172.102 55.6926L173.098 57.4274C175.777 55.8902 178.845 55.11 182.33 55.11V53.11ZM172.102 55.6926C169.091 57.4204 166.743 59.8443 165.07 62.9451L166.83 63.8949C168.33 61.1157 170.416 58.9663 173.098 57.4274L172.102 55.6926ZM165.064 62.956C163.439 66.058 162.64 69.581 162.64 73.5H164.64C164.64 69.859 165.381 66.662 166.836 63.884L165.064 62.956ZM162.64 73.5C162.64 77.3745 163.44 80.8738 165.064 83.974L166.836 83.046C165.38 80.2662 164.64 77.0921 164.64 73.5H162.64ZM165.07 83.9849C166.743 87.0857 169.091 89.5096 172.102 91.2374L173.098 89.5026C170.416 87.9637 168.33 85.8143 166.83 83.0351L165.07 83.9849ZM172.102 91.2374C175.117 92.9668 178.535 93.82 182.33 93.82V91.82C178.845 91.82 175.777 91.0398 173.098 89.5026L172.102 91.2374ZM182.33 93.82C185.488 93.82 188.364 93.2363 190.939 92.048L190.101 90.232C187.822 91.2837 185.238 91.82 182.33 91.82V93.82ZM190.953 92.0413C193.52 90.8072 195.653 89.0729 197.338 86.8428L195.742 85.6372C194.254 87.6071 192.373 89.1395 190.087 90.2387L190.953 92.0413ZM197.344 86.8344C199.032 84.5515 200.137 81.8844 200.675 78.8547L198.705 78.5053C198.216 81.2622 197.222 83.6351 195.736 85.6456L197.344 86.8344ZM199.69 79.68H206.06V77.68H199.69V79.68ZM205.067 78.5645C204.618 82.4266 203.365 85.8139 201.32 88.7482L202.96 89.8918C205.209 86.6661 206.569 82.96 207.053 78.7955L205.067 78.5645ZM201.32 88.7482C199.271 91.6872 196.601 93.9814 193.293 95.6356L194.187 97.4244C197.786 95.6253 200.715 93.1128 202.96 89.8918L201.32 88.7482ZM193.298 95.6331C190.041 97.2391 186.415 98.05 182.4 98.05V100.05C186.692 100.05 190.626 99.1809 194.182 97.4269L193.298 95.6331ZM226.328 95.76L225.828 96.6257L225.836 96.6302L226.328 95.76ZM217.158 86.59L216.286 87.0783L216.289 87.0845L216.293 87.0906L217.158 86.59ZM217.158 60.48L216.29 59.9839L216.288 59.9873L217.158 60.48ZM226.328 51.31L226.821 52.1802L226.829 52.1757L226.328 51.31ZM252.368 51.31L251.868 52.1757L251.876 52.1802L252.368 51.31ZM261.468 60.48L260.596 60.9683L260.598 60.9727L261.468 60.48ZM261.468 86.59L262.338 87.0828L262.341 87.0783L261.468 86.59ZM252.368 95.76L252.861 96.6302L252.869 96.6257L252.368 95.76ZM249.078 90.37L249.57 91.2409L249.58 91.2348L249.078 90.37ZM255.868 83.44L254.997 82.9497L254.994 82.9544L255.868 83.44ZM255.868 63.63L254.991 64.1098L254.995 64.118L255 64.1261L255.868 63.63ZM249.078 56.63L249.58 55.7652L249.58 55.7652L249.078 56.63ZM229.618 56.63L229.116 55.7652L229.116 55.7652L229.618 56.63ZM222.828 63.63L223.702 64.1157L223.706 64.1098L222.828 63.63ZM222.828 83.44L221.951 83.9198L221.954 83.9256L222.828 83.44ZM229.618 90.37L229.116 91.2349L229.127 91.2408L229.618 90.37ZM239.348 98.05C234.7 98.05 230.532 96.9913 226.821 94.8898L225.836 96.6302C229.871 98.9153 234.383 100.05 239.348 100.05V98.05ZM226.829 94.8943C223.107 92.742 220.176 89.8112 218.024 86.0894L216.293 87.0906C218.62 91.1155 221.803 94.298 225.828 96.6257L226.829 94.8943ZM218.031 86.1017C215.927 82.3413 214.868 78.1481 214.868 73.5H212.868C212.868 78.4653 214.003 82.9987 216.286 87.0783L218.031 86.1017ZM214.868 73.5C214.868 68.8518 215.927 64.6839 218.028 60.9727L216.288 59.9873C214.003 64.0228 212.868 68.5348 212.868 73.5H214.868ZM218.027 60.9761C220.179 57.21 223.107 54.2835 226.821 52.1802L225.836 50.4398C221.803 52.7231 218.618 55.91 216.29 59.9839L218.027 60.9761ZM226.829 52.1757C230.539 50.0302 234.704 48.95 239.348 48.95V46.95C234.379 46.95 229.864 48.1098 225.828 50.4443L226.829 52.1757ZM239.348 48.95C243.993 48.95 248.158 50.0302 251.868 52.1757L252.869 50.4443C248.832 48.1098 244.317 46.95 239.348 46.95V48.95ZM251.876 52.1802C255.588 54.2825 258.491 57.2064 260.596 60.9683L262.341 59.9917C260.059 55.9136 256.895 52.7242 252.861 50.4398L251.876 52.1802ZM260.598 60.9727C262.7 64.6839 263.758 68.8518 263.758 73.5H265.758C265.758 68.5348 264.624 64.0228 262.338 59.9873L260.598 60.9727ZM263.758 73.5C263.758 78.1481 262.7 82.3413 260.596 86.1017L262.341 87.0783C264.624 82.9987 265.758 78.4653 265.758 73.5H263.758ZM260.598 86.0973C258.493 89.8147 255.588 92.743 251.868 94.8943L252.869 96.6257C256.896 94.297 260.057 91.1119 262.338 87.0827L260.598 86.0973ZM251.876 94.8898C248.164 96.9913 243.996 98.05 239.348 98.05V100.05C244.313 100.05 248.826 98.9153 252.861 96.6302L251.876 94.8898ZM239.348 93.82C243.099 93.82 246.514 92.9657 249.57 91.2408L248.587 89.4992C245.855 91.041 242.784 91.82 239.348 91.82V93.82ZM249.58 91.2348C252.631 89.4638 255.022 87.0224 256.742 83.9256L254.994 82.9544C253.448 85.7376 251.313 87.9162 248.576 89.5052L249.58 91.2348ZM256.74 83.9303C258.509 80.7846 259.388 77.3007 259.388 73.5H257.388C257.388 76.9793 256.587 80.1221 254.997 82.9497L256.74 83.9303ZM259.388 73.5C259.388 69.6994 258.509 66.2362 256.737 63.1339L255 64.1261C256.587 66.9038 257.388 70.0206 257.388 73.5H259.388ZM256.746 63.1502C255.026 60.0063 252.635 57.5386 249.58 55.7652L248.576 57.4948C251.309 59.0814 253.444 61.2804 254.991 64.1098L256.746 63.1502ZM249.58 55.7652C246.523 53.9901 243.104 53.11 239.348 53.11V55.11C242.779 55.11 245.847 55.9099 248.576 57.4948L249.58 55.7652ZM239.348 53.11C235.592 53.11 232.173 53.9901 229.116 55.7652L230.12 57.4948C232.85 55.9099 235.918 55.11 239.348 55.11V53.11ZM229.116 55.7652C226.062 57.5386 223.67 60.0063 221.951 63.1502L223.706 64.1098C225.253 61.2804 227.388 59.0814 230.12 57.4948L229.116 55.7652ZM221.954 63.1444C220.232 66.245 219.378 69.7044 219.378 73.5H221.378C221.378 70.0156 222.158 66.895 223.702 64.1156L221.954 63.1444ZM219.378 73.5C219.378 77.2957 220.232 80.7759 221.951 83.9198L223.706 82.9602C222.158 80.1308 221.378 76.9843 221.378 73.5H219.378ZM221.954 83.9256C223.675 87.0224 226.066 89.4638 229.116 91.2348L230.12 89.5052C227.384 87.9162 225.249 85.7376 223.702 82.9544L221.954 83.9256ZM229.127 91.2408C232.182 92.9657 235.597 93.82 239.348 93.82V91.82C235.913 91.82 232.841 91.041 230.11 89.4992L229.127 91.2408ZM282.518 96.88L282.097 97.7873L282.108 97.7922L282.518 96.88ZM274.818 90.58L273.994 91.1478L274.001 91.1572L274.818 90.58ZM271.528 81.2V80.2H270.431L270.532 81.2917L271.528 81.2ZM277.758 81.2L278.747 81.0561L278.623 80.2H277.758V81.2ZM280.278 87.85L279.458 88.4235L279.458 88.4235L280.278 87.85ZM285.528 92.26L285.088 93.1582L285.099 93.1638L285.111 93.1691L285.528 92.26ZM303.098 91.35L303.671 92.1693L303.682 92.1615L303.098 91.35ZM304.568 78.96L303.836 79.6423L303.848 79.6549L303.86 79.6671L304.568 78.96ZM299.248 75.74L298.925 76.6867L298.931 76.6887L299.248 75.74ZM290.708 73.64L290.891 72.657L290.8 72.64H290.708V73.64ZM290.638 73.64L290.451 74.6224L290.543 74.64H290.638V73.64ZM281.398 71.26L281.054 72.1993L281.06 72.2013L281.398 71.26ZM275.518 67.48L276.256 66.8052L276.256 66.8052L275.518 67.48ZM275.588 54.18L274.803 53.5598L274.801 53.5622L275.588 54.18ZM282.098 49.56L281.74 48.6262L281.734 48.6283L282.098 49.56ZM302.258 50.12L301.827 51.0226L301.835 51.0266L301.844 51.0304L302.258 50.12ZM312.618 65.45V66.45H313.698L313.614 65.3723L312.618 65.45ZM306.108 65.45L305.113 65.5591L305.211 66.45H306.108V65.45ZM285.038 54.46L284.662 53.533L284.654 53.5363L285.038 54.46ZM280.558 57.89L281.361 58.4858L281.365 58.4798L281.37 58.4736L280.558 57.89ZM280.908 68.11L280.2 68.8171L280.207 68.8235L280.213 68.8298L280.908 68.11ZM286.298 71.12L285.987 72.0706L285.996 72.0735L286.005 72.0762L286.298 71.12ZM295.818 73.43L296.06 72.4599L296.04 72.4549L296.02 72.4507L295.818 73.43ZM296.308 73.57L295.991 74.5187L296.145 74.57H296.308V73.57ZM296.728 73.64L297.175 72.7456L297.111 72.7138L297.044 72.6913L296.728 73.64ZM297.288 73.78L296.84 74.6744L296.96 74.7343L297.091 74.7606L297.288 73.78ZM305.338 76.02L304.966 76.9485L304.978 76.9534L304.991 76.958L305.338 76.02ZM310.588 79.66L309.817 80.298L309.827 80.31L309.838 80.3216L310.588 79.66ZM310.308 92.96L309.523 92.3398L309.521 92.3422L310.308 92.96ZM303.658 97.51L303.997 98.4507L304.005 98.4476L303.658 97.51ZM293.648 98.05C289.562 98.05 285.996 97.3467 282.927 95.9678L282.108 97.7922C285.479 99.3067 289.333 100.05 293.648 100.05V98.05ZM282.938 95.9728C279.865 94.5476 277.439 92.5567 275.634 90.0028L274.001 91.1572C276.022 94.0167 278.73 96.2257 282.097 97.7872L282.938 95.9728ZM275.641 90.0123C273.879 87.4585 272.836 84.4987 272.523 81.1083L270.532 81.2917C270.873 84.9946 272.022 88.2882 273.994 91.1477L275.641 90.0123ZM271.528 82.2H277.758V80.2H271.528V82.2ZM276.768 81.3439C277.161 84.0436 278.05 86.4122 279.458 88.4235L281.097 87.2765C279.891 85.5545 279.101 83.4897 278.747 81.0561L276.768 81.3439ZM279.458 88.4235C280.869 90.4387 282.754 92.016 285.088 93.1582L285.967 91.3618C283.914 90.3573 282.299 88.9947 281.097 87.2765L279.458 88.4235ZM285.111 93.1691C287.504 94.2661 290.241 94.8 293.298 94.8V92.8C290.474 92.8 288.031 92.3072 285.944 91.3509L285.111 93.1691ZM293.298 94.8C297.61 94.8 301.107 93.964 303.671 92.1692L302.524 90.5308C300.421 92.0027 297.385 92.8 293.298 92.8V94.8ZM303.682 92.1615C306.293 90.2818 307.598 87.6141 307.598 84.28H305.598C305.598 87.0125 304.569 89.0582 302.513 90.5385L303.682 92.1615ZM307.598 84.28C307.598 81.8635 306.843 79.8215 305.275 78.2529L303.86 79.6671C304.998 80.8051 305.598 82.3098 305.598 84.28H307.598ZM305.299 78.2777C303.854 76.7304 301.926 75.5786 299.564 74.7913L298.931 76.6887C301.049 77.3947 302.667 78.3896 303.836 79.6423L305.299 78.2777ZM299.57 74.7933C297.314 74.0254 294.416 73.315 290.891 72.657L290.524 74.623C293.999 75.2717 296.794 75.9613 298.925 76.6866L299.57 74.7933ZM290.708 72.64H290.638V74.64H290.708V72.64ZM290.824 72.6576C287.169 71.9635 284.143 71.182 281.735 70.3187L281.06 72.2013C283.598 73.1113 286.733 73.9165 290.451 74.6224L290.824 72.6576ZM281.741 70.3207C279.44 69.48 277.624 68.3016 276.256 66.8052L274.779 68.1548C276.398 69.9251 278.502 71.2667 281.054 72.1993L281.741 70.3207ZM276.256 66.8052C274.96 65.3888 274.278 63.5215 274.278 61.11H272.278C272.278 63.9251 273.088 66.3046 274.779 68.1548L276.256 66.8052ZM274.278 61.11C274.278 58.658 274.982 56.5694 276.374 54.7978L274.801 53.5622C273.113 55.7106 272.278 58.242 272.278 61.11H274.278ZM276.372 54.8002C277.832 52.9534 279.847 51.5106 282.461 50.4917L281.734 48.6283C278.841 49.756 276.516 51.3933 274.803 53.5598L276.372 54.8002ZM282.455 50.4937C285.122 49.4714 288.171 48.95 291.618 48.95V46.95C287.97 46.95 284.673 47.5019 281.74 48.6263L282.455 50.4937ZM291.618 48.95C295.559 48.95 298.953 49.652 301.827 51.0226L302.688 49.2174C299.495 47.6947 295.796 46.95 291.618 46.95V48.95ZM301.844 51.0304C304.769 52.3599 307.047 54.2512 308.71 56.7015L310.365 55.5785C308.481 52.8022 305.906 50.6801 302.671 49.2096L301.844 51.0304ZM308.71 56.7015C310.373 59.1517 311.352 62.0828 311.621 65.5277L313.614 65.3723C313.323 61.6306 312.249 58.3549 310.365 55.5785L308.71 56.7015ZM312.618 64.45H306.108V66.45H312.618V64.45ZM307.102 65.3409C306.659 61.305 305.092 58.0675 302.346 55.7288L301.049 57.2512C303.343 59.2058 304.716 61.9417 305.113 65.5591L307.102 65.3409ZM302.346 55.7288C299.607 53.3952 296.069 52.27 291.828 52.27V54.27C295.706 54.27 298.748 55.2914 301.049 57.2512L302.346 55.7288ZM291.828 52.27C289.159 52.27 286.764 52.6823 284.662 53.5331L285.413 55.3869C287.231 54.651 289.363 54.27 291.828 54.27V52.27ZM284.654 53.5363C282.592 54.3916 280.941 55.6435 279.745 57.3064L281.37 58.4736C282.321 57.1498 283.657 56.1151 285.421 55.3837L284.654 53.5363ZM279.754 57.2942C278.542 58.9285 277.948 60.8454 277.948 63H279.948C279.948 61.2346 280.427 59.7448 281.361 58.4858L279.754 57.2942ZM277.948 63C277.948 65.3258 278.68 67.2968 280.2 68.8171L281.615 67.4029C280.522 66.3099 279.948 64.8742 279.948 63H277.948ZM280.213 68.8298C281.658 70.2231 283.601 71.2916 285.987 72.0706L286.608 70.1694C284.42 69.4551 282.77 68.5169 281.602 67.3902L280.213 68.8298ZM286.005 72.0762C288.335 72.7895 291.543 73.5668 295.615 74.4093L296.02 72.4507C291.972 71.6132 288.833 70.8505 286.59 70.1638L286.005 72.0762ZM295.575 74.4001C295.744 74.4423 295.882 74.4821 295.991 74.5187L296.624 72.6213C296.453 72.5646 296.265 72.511 296.06 72.4599L295.575 74.4001ZM296.308 74.57C296.334 74.57 296.368 74.5742 296.411 74.5887L297.044 72.6913C296.807 72.6125 296.561 72.57 296.308 72.57V74.57ZM296.28 74.5344C296.496 74.6422 296.741 74.71 297.008 74.71V72.71C297.087 72.71 297.146 72.7311 297.175 72.7456L296.28 74.5344ZM297.008 74.71C296.928 74.71 296.869 74.6889 296.84 74.6744L297.735 72.8856C297.519 72.7778 297.274 72.71 297.008 72.71V74.71ZM297.091 74.7606C300.323 75.407 302.943 76.1391 304.966 76.9485L305.709 75.0915C303.532 74.2209 300.785 73.4597 297.484 72.7994L297.091 74.7606ZM304.991 76.958C306.986 77.6953 308.585 78.8108 309.817 80.298L311.358 79.022C309.883 77.2425 307.982 75.9314 305.684 75.082L304.991 76.958ZM309.838 80.3216C311.041 81.6854 311.688 83.5307 311.688 85.96H313.688C313.688 83.1626 312.934 80.808 311.337 78.9984L309.838 80.3216ZM311.688 85.96C311.688 88.4046 310.964 90.5171 309.523 92.3398L311.092 93.5802C312.824 91.3895 313.688 88.8354 313.688 85.96H311.688ZM309.521 92.3422C308.119 94.1263 306.071 95.548 303.31 96.5724L304.005 98.4476C307.03 97.3253 309.416 95.7137 311.094 93.5778L309.521 92.3422ZM303.318 96.5693C300.605 97.5479 297.388 98.05 293.648 98.05V100.05C297.561 100.05 301.017 99.5254 303.997 98.4507L303.318 96.5693ZM324.367 98H323.367V99H324.367V98ZM324.367 49V48H323.367V49H324.367ZM331.227 49L332.157 48.6315L331.906 48H331.227V49ZM349.987 96.32L349.057 96.6885L349.987 99.0334L350.917 96.6885L349.987 96.32ZM368.747 49V48H368.068L367.818 48.6315L368.747 49ZM375.537 49H376.537V48H375.537V49ZM375.537 98V99H376.537V98H375.537ZM369.237 98H368.237V99H369.237V98ZM369.237 51.94H370.237L368.309 51.5688L369.237 51.94ZM350.827 98V99H351.504L351.756 98.3711L350.827 98ZM349.077 98L348.149 98.3711L348.4 99H349.077V98ZM330.667 51.94L331.596 51.5688L329.667 51.94H330.667ZM330.667 98V99H331.667V98H330.667ZM325.367 98V49H323.367V98H325.367ZM324.367 50H331.227V48H324.367V50ZM330.297 49.3685L349.057 96.6885L350.917 95.9515L332.157 48.6315L330.297 49.3685ZM350.917 96.6885L369.677 49.3685L367.818 48.6315L349.057 95.9515L350.917 96.6885ZM368.747 50H375.537V48H368.747V50ZM374.537 49V98H376.537V49H374.537ZM375.537 97H369.237V99H375.537V97ZM370.237 98V51.94H368.237V98H370.237ZM368.309 51.5688L349.899 97.6289L351.756 98.3711L370.166 52.3111L368.309 51.5688ZM350.827 97H349.077V99H350.827V97ZM350.006 97.6289L331.596 51.5688L329.739 52.3111L348.149 98.3711L350.006 97.6289ZM329.667 51.94V98H331.667V51.94H329.667ZM330.667 97H324.367V99H330.667V97ZM392.18 98H391.18V99H392.18V98ZM392.18 49V48H391.18V49H392.18ZM422.07 49H423.07V48H422.07V49ZM422.07 54.6V55.6H423.07V54.6H422.07ZM398.41 54.6V53.6H397.41V54.6H398.41ZM398.41 72.8H397.41V73.8H398.41V72.8ZM415.42 72.8H416.42V71.8H415.42V72.8ZM415.42 74.2V75.2H416.42V74.2H415.42ZM398.41 74.2V73.2H397.41V74.2H398.41ZM398.41 92.4H397.41V93.4H398.41V92.4ZM424.8 92.4H425.8V91.4H424.8V92.4ZM424.8 98V99H425.8V98H424.8ZM393.18 98V49H391.18V98H393.18ZM392.18 50H422.07V48H392.18V50ZM421.07 49V54.6H423.07V49H421.07ZM422.07 53.6H398.41V55.6H422.07V53.6ZM397.41 54.6V72.8H399.41V54.6H397.41ZM398.41 73.8H415.42V71.8H398.41V73.8ZM414.42 72.8V74.2H416.42V72.8H414.42ZM415.42 73.2H398.41V75.2H415.42V73.2ZM397.41 74.2V92.4H399.41V74.2H397.41ZM398.41 93.4H424.8V91.4H398.41V93.4ZM423.8 92.4V98H425.8V92.4H423.8ZM424.8 97H392.18V99H424.8V97ZM447.498 98H446.498V99H447.498V98ZM447.498 55.09H448.498V54.09H447.498V55.09ZM428.528 55.09H427.528V56.09H428.528V55.09ZM428.528 49V48H427.528V49H428.528ZM472.698 49H473.698V48H472.698V49ZM472.698 55.09V56.09H473.698V55.09H472.698ZM453.798 55.09V54.09H452.798V55.09H453.798ZM453.798 98V99H454.798V98H453.798ZM448.498 98V55.09H446.498V98H448.498ZM447.498 54.09H428.528V56.09H447.498V54.09ZM429.528 55.09V49H427.528V55.09H429.528ZM428.528 50H472.698V48H428.528V50ZM471.698 49V55.09H473.698V49H471.698ZM472.698 54.09H453.798V56.09H472.698V54.09ZM452.798 55.09V98H454.798V55.09H452.798ZM453.798 97H447.498V99H453.798V97Z" fill="#BFA0FF"/>
<defs>
<linearGradient id="paint0_linear_251_140" x1="104" y1="11" x2="70.5" y2="141" gradientUnits="userSpaceOnUse">
<stop stop-color="#FFB8C5"/>
<stop offset="0.505208" stop-color="#C956FF" stop-opacity="0.53"/>
<stop offset="1" stop-color="#3AB8FF" stop-opacity="0"/>
</linearGradient>
</defs>
</svg>
